<svg width="600" height="400" viewBox="0 0 600 400" xmlns="http://www.w3.org/2000/svg">
  <!-- Background: The Unpredictable Ocean (Real World) -->
  <defs>
    <linearGradient id="oceanGradient" x1="0%" y1="0%" x2="0%" y2="100%">
      <stop offset="0%" stop-color="#e1f5fe" stop-opacity="1" />
      <stop offset="100%" stop-color="#b3e5fc" stop-opacity="1" />
    </linearGradient>
  </defs>
  <rect width="600" height="400" fill="url(#oceanGradient)" rx="10" ry="10" />
  <text x="300" y="30" text-anchor="middle" font-family="sans-serif" font-size="14" fill="#0288d1" font-weight="bold" letter-spacing="1">THE UNPREDICTABLE OCEAN (THE OUTSIDE WORLD)</text>

  <!-- Waves -->
  <path d="M0 380 Q 75 350 150 380 T 300 380 T 450 380 T 600 380" fill="none" stroke="#81d4fa" stroke-width="2" />
  <path d="M0 360 Q 75 330 150 360 T 300 360 T 450 360 T 600 360" fill="none" stroke="#81d4fa" stroke-width="1" />

  <!-- Fixed Secure Bases (Islands of Safety) -->
  <!-- Home Island -->
  <path d="M40 220 Q 80 140 120 220 Z" fill="#4caf50" />
  <circle cx="80" cy="205" r="25" fill="#1a237e" />
  <text x="80" y="245" text-anchor="middle" font-family="sans-serif" font-size="12" fill="#1a237e" font-weight="bold">HOME</text>

  <!-- Office/School Island -->
  <path d="M480 120 Q 520 40 560 120 Z" fill="#8bc34a" />
  <circle cx="520" cy="105" r="25" fill="#1a237e" />
  <text x="520" y="145" text-anchor="middle" font-family="sans-serif" font-size="11" fill="#1a237e" font-weight="bold">WORK / SCHOOL</text>

  <!-- The App: The Navigator Whale (DeepBreath) -->
  <g transform="translate(250, 220)">
    <!-- Whale Body (DeepBreath) -->
    <path d="M-60 0 C-60 -40 40 -40 80 0 C 80 20 40 30 -20 30 C-60 30 -60 20 -60 0" fill="#01579b" />
    <!-- Tail -->
    <path d="M-60 0 C-90 -10 -90 10 -60 0" fill="#01579b" />
    <path d="M-90 -10 C-110 -20 -110 0 -90 0" fill="#01579b" />
    <path d="M-90 10 C-110 20 -110 0 -90 0" fill="#01579b" />
    <!-- Eye -->
    <circle cx="55" cy="-5" r="3" fill="white" />
    
    <!-- User (Riding the Whale) -->
    <circle cx="10" cy="-35" r="15" fill="#ffd54f" stroke="#ff8f00" stroke-width="2" />
    <text x="10" y="-55" text-anchor="middle" font-family="sans-serif" font-size="11" fill="#ff8f00" font-weight="bold">USER</text>

    <!-- DeepBreath Label inside whale -->
    <text x="10" y="10" text-anchor="middle" font-family="sans-serif" font-size="12" fill="white" font-weight="bold">DEEPBREATH</text>
  </g>

  <!-- Hazards (Graphical only) -->
  <g transform="translate(380, 300)">
    <circle cx="0" cy="0" r="15" fill="#cfd8dc" />
    <circle cx="20" cy="0" r="20" fill="#cfd8dc" />
    <circle cx="10" cy="-15" r="15" fill="#cfd8dc" />
  </g>
  
  <g transform="translate(420, 200)">
    <path d="M0 20 L20 0 L40 20 Z" fill="#90a4ae" />
  </g>
</svg>
